<svg xmlns="http://www.w3.org/2000/svg" viewBox="0 0 64 64"><defs><style>.a{fill:#e8f3f7;}.b{fill:#42aaff;}</style></defs><g transform="translate(-480 -2896)"><rect class="a" width="64" height="64" transform="translate(480 2896)"/><path class="b" d="M14.04-6.3A5.142,5.142,0,0,1,12.5-2.259,6.481,6.481,0,0,1,8.208-.81v1.4H6.552V-.81A6.569,6.569,0,0,1,2.2-2.331,5.134,5.134,0,0,1,.72-6.264a5.142,5.142,0,0,1,1.539-4.041,6.481,6.481,0,0,1,4.293-1.449v-1.26H8.208v1.26a6.569,6.569,0,0,1,4.347,1.521A5.134,5.134,0,0,1,14.04-6.3ZM2.484-6.264A4.166,4.166,0,0,0,3.5-3.186a4.515,4.515,0,0,0,3.087,1.1v-8.406A4.677,4.677,0,0,0,3.483-9.378,4.23,4.23,0,0,0,2.484-6.264ZM8.172-2.07a4.677,4.677,0,0,0,3.1-1.116,4.23,4.23,0,0,0,1-3.114,4.165,4.165,0,0,0-1.017-3.078,4.515,4.515,0,0,0-3.087-1.1ZM19.908-7.74a5.628,5.628,0,0,1,3.483.954A3.332,3.332,0,0,1,24.642-3.96,3.494,3.494,0,0,1,23.355-.954,5.792,5.792,0,0,1,19.836,0H16.56V-12.4h6.75L23.094-11H18.27V-7.74Zm.072,6.372a3.438,3.438,0,0,0,2.106-.558,2.361,2.361,0,0,0,.738-2,2.275,2.275,0,0,0-.738-1.908,3.459,3.459,0,0,0-2.16-.576H18.27v5.04Z" transform="translate(500 2934)"/></g></svg>