<svg xmlns="http://www.w3.org/2000/svg" viewBox="0 0 123 64"><defs><style>.a{fill:#fff;stroke:#42aaff;}.b{fill:#002d72;}.c{stroke:none;}.d{fill:none;}</style></defs><g transform="translate(-1625 -3664)"><g class="a" transform="translate(1625 3664)"><rect class="c" width="123" height="64"/><rect class="d" x="0.5" y="0.5" width="122" height="63"/></g><path class="b" d="M9.108-12.4V0H7.4V-4.878H4.878L2.484,0H.54l2.7-5.184A3.664,3.664,0,0,1,1.467-6.516a3.578,3.578,0,0,1-.6-2.07A3.454,3.454,0,0,1,2.07-11.4a5.411,5.411,0,0,1,3.528-1ZM7.4-6.228V-11.07H5.706a3.524,3.524,0,0,0-2.313.612,2.337,2.337,0,0,0-.711,1.872,2.225,2.225,0,0,0,.675,1.764,2.64,2.64,0,0,0,1.809.594ZM13.05-2.286a1.221,1.221,0,0,1,.9.36,1.2,1.2,0,0,1,.36.882,1.229,1.229,0,0,1-.36.891,1.206,1.206,0,0,1-.9.369,1.185,1.185,0,0,1-.882-.369,1.229,1.229,0,0,1-.36-.891,1.2,1.2,0,0,1,.36-.882A1.2,1.2,0,0,1,13.05-2.286ZM25.686-1.4V2.7h-1.35L24.066,0H16.92l-.27,2.7H15.3V-1.4h.846a3.071,3.071,0,0,0,.747-1.188,10.708,10.708,0,0,0,.45-1.917q.189-1.2.585-4.293l.45-3.6h6.3v11ZM22.968-11h-3.1L19.62-8.73q-.324,2.772-.531,4.05a8.583,8.583,0,0,1-.54,2.034A3.136,3.136,0,0,1,17.586-1.4h5.382ZM35.352-5.022q0,.414-.036.846H29.268a3.7,3.7,0,0,0,.792,2.3,2.3,2.3,0,0,0,1.764.738,3.853,3.853,0,0,0,1.26-.2,5.081,5.081,0,0,0,1.206-.63l.72.99A5.243,5.243,0,0,1,31.7.216a3.841,3.841,0,0,1-3.087-1.3A5.312,5.312,0,0,1,27.5-4.644a6.751,6.751,0,0,1,.477-2.619,4.109,4.109,0,0,1,1.368-1.791,3.469,3.469,0,0,1,2.1-.648,3.516,3.516,0,0,1,2.9,1.242A5.31,5.31,0,0,1,35.352-5.022Zm-1.638-.486a3.507,3.507,0,0,0-.558-2.142,1.966,1.966,0,0,0-1.674-.738q-2.034,0-2.214,2.988h4.446ZM43.6,0V-4.176H39.654V0H38V-9.486h1.656v3.978H43.6V-9.486h1.656V0Zm7.992-6.426a4.652,4.652,0,0,1,3.078.828A2.954,2.954,0,0,1,55.62-3.24,2.859,2.859,0,0,1,54.549-.819,4.242,4.242,0,0,1,51.894,0H48.672V-9.486h1.656v3.06ZM51.75-1.3a2.4,2.4,0,0,0,1.557-.45,1.828,1.828,0,0,0,.549-1.494A1.882,1.882,0,0,0,53.343-4.7a2.628,2.628,0,0,0-1.773-.468H50.328V-1.3ZM59.616,0H57.96V-9.486h5.922l-.216,1.368h-4.05ZM73.062,0H71.424V-4.284q0-1.08.072-2.052t.126-1.278L67.644,0H65.682V-9.486H67.32V-5.2q0,.954-.072,1.971T67.14-1.926l3.924-7.56h2Z" transform="translate(1649 3702)"/></g></svg>