<svg xmlns="http://www.w3.org/2000/svg" viewBox="0 0 85 64"><defs><style>.a{fill:#fff;stroke:#42aaff;}.b{fill:#002d72;}.c{stroke:none;}.d{fill:none;}</style></defs><g transform="translate(-1524 -3664)"><g class="a" transform="translate(1524 3664)"><rect class="c" width="85" height="64"/><rect class="d" x="0.5" y="0.5" width="84" height="63"/></g><path class="b" d="M12.888,0H11.232L10.8-5.6q-.27-3.294-.306-5.058L7.812-1.4H6.21l-2.826-9.27q0,2.25-.234,5.2L2.736,0H1.116L2.142-12.4h2.3l2.61,9.018L9.54-12.4h2.322ZM24.5,0h-1.71V-6.048q0-2.106.234-4.446L18,0H15.8V-12.4h1.71v6.048a38.69,38.69,0,0,1-.234,4.5L22.356-12.4H24.5Zm6.858-12.4a5.763,5.763,0,0,1,3.564.963,3.387,3.387,0,0,1,1.26,2.871,3.543,3.543,0,0,1-1.314,3.024,5.661,5.661,0,0,1-3.492.99H29.808V0H28.1V-12.4ZM31.3-5.9a3.807,3.807,0,0,0,2.277-.576,2.413,2.413,0,0,0,.783-2.07,2.263,2.263,0,0,0-.783-1.926,3.651,3.651,0,0,0-2.241-.594h-1.53V-5.9Z" transform="translate(1548 3702)"/></g></svg>