<svg xmlns="http://www.w3.org/2000/svg" viewBox="0 0 145 64"><defs><style>.a{fill:#fff;stroke:#42aaff;}.b{fill:#002d72;}.c{stroke:none;}.d{fill:none;}</style></defs><g transform="translate(-1363 -3664)"><g class="a" transform="translate(1363 3664)"><rect class="c" width="145" height="64"/><rect class="d" x="0.5" y="0.5" width="144" height="63"/></g><path class="b" d="M12.888,0H11.232L10.8-5.6q-.27-3.294-.306-5.058L7.812-1.4H6.21l-2.826-9.27q0,2.25-.234,5.2L2.736,0H1.116L2.142-12.4h2.3l2.61,9.018L9.54-12.4h2.322ZM22.1-2.214a1.487,1.487,0,0,0,.2.855,1.207,1.207,0,0,0,.594.423L22.518.216A2.531,2.531,0,0,1,21.33-.2a1.894,1.894,0,0,1-.666-1.008A3.182,3.182,0,0,1,17.838.216a3.031,3.031,0,0,1-2.214-.792,2.766,2.766,0,0,1-.81-2.07A2.719,2.719,0,0,1,15.9-4.968a5.1,5.1,0,0,1,3.087-.81h1.458v-.7a1.845,1.845,0,0,0-.486-1.44,2.2,2.2,0,0,0-1.494-.432,8.357,8.357,0,0,0-2.556.5L15.5-9.054A9.547,9.547,0,0,1,18.774-9.7a3.424,3.424,0,0,1,2.5.819A3.133,3.133,0,0,1,22.1-6.552ZM18.216-1.026A2.472,2.472,0,0,0,20.448-2.5V-4.68H19.206q-2.628,0-2.628,1.944a1.78,1.78,0,0,0,.414,1.278A1.619,1.619,0,0,0,18.216-1.026ZM27.9-9.7a5.281,5.281,0,0,1,1.746.27,5.255,5.255,0,0,1,1.476.81l-.7,1.044a5.729,5.729,0,0,0-1.233-.612,3.82,3.82,0,0,0-1.233-.2,2.168,2.168,0,0,0-1.278.333,1.057,1.057,0,0,0-.468.909,1.054,1.054,0,0,0,.441.9,5.119,5.119,0,0,0,1.593.63,5.691,5.691,0,0,1,2.367,1.08,2.357,2.357,0,0,1,.783,1.872A2.427,2.427,0,0,1,30.3-.522a4.622,4.622,0,0,1-2.655.738,5.248,5.248,0,0,1-3.582-1.242l.882-1.008a4.3,4.3,0,0,0,2.664.918A2.534,2.534,0,0,0,29.1-1.5a1.222,1.222,0,0,0,.549-1.053,1.389,1.389,0,0,0-.2-.783,1.607,1.607,0,0,0-.684-.522,9.385,9.385,0,0,0-1.422-.477A4.853,4.853,0,0,1,25.155-5.4a2.276,2.276,0,0,1-.675-1.692,2.218,2.218,0,0,1,.441-1.341,2.861,2.861,0,0,1,1.224-.936A4.443,4.443,0,0,1,27.9-9.7ZM38.52-.432A3.642,3.642,0,0,1,36.4.216a2.5,2.5,0,0,1-1.881-.693,2.762,2.762,0,0,1-.675-2.007V-8.208H32.184V-9.486H33.84v-2.142l1.656-.2v2.34h2.25l-.18,1.278H35.5v5.652a1.745,1.745,0,0,0,.261,1.071,1.044,1.044,0,0,0,.873.333,2.715,2.715,0,0,0,1.26-.378Zm8.6-4.59q0,.414-.036.846H41.04a3.7,3.7,0,0,0,.792,2.3,2.3,2.3,0,0,0,1.764.738,3.853,3.853,0,0,0,1.26-.2,5.081,5.081,0,0,0,1.206-.63l.72.99A5.243,5.243,0,0,1,43.47.216a3.841,3.841,0,0,1-3.087-1.3,5.312,5.312,0,0,1-1.107-3.564,6.751,6.751,0,0,1,.477-2.619,4.109,4.109,0,0,1,1.368-1.791,3.469,3.469,0,0,1,2.1-.648,3.516,3.516,0,0,1,2.9,1.242A5.31,5.31,0,0,1,47.124-5.022Zm-1.638-.486a3.507,3.507,0,0,0-.558-2.142,1.966,1.966,0,0,0-1.674-.738q-2.034,0-2.214,2.988h4.446ZM53.892-9.7a3.852,3.852,0,0,1,.936.108l-.306,1.62a3.413,3.413,0,0,0-.828-.108,1.76,1.76,0,0,0-1.422.648,4.815,4.815,0,0,0-.846,2.016V0H49.77V-9.486h1.422l.162,1.926a3.6,3.6,0,0,1,1.026-1.6A2.29,2.29,0,0,1,53.892-9.7Zm12.024-2.916a5.369,5.369,0,0,1,1.881.288,5.619,5.619,0,0,1,1.557.936l-.936,1.1a3.75,3.75,0,0,0-2.394-.918,3.029,3.029,0,0,0-2.493,1.188,6.146,6.146,0,0,0-.945,3.816,6.172,6.172,0,0,0,.936,3.771,2.981,2.981,0,0,0,2.484,1.215,3.321,3.321,0,0,0,1.386-.27,7.279,7.279,0,0,0,1.26-.756L69.5-1.17a4.613,4.613,0,0,1-1.476.99,5.1,5.1,0,0,1-2.07.4,4.92,4.92,0,0,1-2.691-.747,4.916,4.916,0,0,1-1.836-2.2,8.391,8.391,0,0,1-.657-3.483,8.1,8.1,0,0,1,.684-3.483,5.045,5.045,0,0,1,1.854-2.187A4.792,4.792,0,0,1,65.916-12.618Zm11.862,10.4a1.487,1.487,0,0,0,.2.855,1.207,1.207,0,0,0,.594.423L78.192.216A2.531,2.531,0,0,1,77-.2a1.894,1.894,0,0,1-.666-1.008A3.182,3.182,0,0,1,73.512.216,3.031,3.031,0,0,1,71.3-.576a2.766,2.766,0,0,1-.81-2.07,2.719,2.719,0,0,1,1.089-2.322,5.1,5.1,0,0,1,3.087-.81h1.458v-.7a1.845,1.845,0,0,0-.486-1.44,2.2,2.2,0,0,0-1.494-.432,8.357,8.357,0,0,0-2.556.5l-.414-1.206A9.547,9.547,0,0,1,74.448-9.7a3.424,3.424,0,0,1,2.5.819,3.133,3.133,0,0,1,.828,2.331ZM73.89-1.026A2.472,2.472,0,0,0,76.122-2.5V-4.68H74.88q-2.628,0-2.628,1.944a1.78,1.78,0,0,0,.414,1.278A1.619,1.619,0,0,0,73.89-1.026ZM85.3-9.7a3.852,3.852,0,0,1,.936.108l-.306,1.62a3.413,3.413,0,0,0-.828-.108,1.76,1.76,0,0,0-1.422.648,4.815,4.815,0,0,0-.846,2.016V0H81.18V-9.486H82.6l.162,1.926a3.6,3.6,0,0,1,1.026-1.6A2.29,2.29,0,0,1,85.3-9.7Zm9.63-3.6V0H93.474l-.162-1.314a3.432,3.432,0,0,1-1.17,1.125,3.077,3.077,0,0,1-1.566.405,3.051,3.051,0,0,1-2.637-1.332A6.078,6.078,0,0,1,86.994-4.7a6.986,6.986,0,0,1,.45-2.592,4.013,4.013,0,0,1,1.3-1.773A3.193,3.193,0,0,1,90.72-9.7a3.4,3.4,0,0,1,2.556,1.17V-13.5Zm-4,12.2a2.326,2.326,0,0,0,1.3-.351A4.043,4.043,0,0,0,93.276-2.5V-7.146a3.585,3.585,0,0,0-1-.927,2.3,2.3,0,0,0-1.2-.315,1.922,1.922,0,0,0-1.7.918,5.027,5.027,0,0,0-.6,2.736A5.3,5.3,0,0,0,89.334-2,1.779,1.779,0,0,0,90.936-1.1Z" transform="translate(1387 3702)"/></g></svg>