<svg xmlns="http://www.w3.org/2000/svg" viewBox="0 0 83 64"><defs><style>.a{fill:#fff;stroke:#42aaff;}.b{fill:#002d72;}.c{stroke:none;}.d{fill:none;}</style></defs><g transform="translate(-1264 -3664)"><g class="a" transform="translate(1264 3664)"><rect class="c" width="83" height="64"/><rect class="d" x="0.5" y="0.5" width="82" height="63"/></g><path class="b" d="M9.9-12.4,5.94,0H4.1l-4-12.4H1.944L5.058-1.854,8.172-12.4Zm3.618,0V0h-1.71V-12.4Zm6.66-.216a5.745,5.745,0,0,1,2.124.351,5.817,5.817,0,0,1,1.71,1.089l-.936,1.044a5.33,5.33,0,0,0-1.377-.819,3.983,3.983,0,0,0-1.449-.261,2.689,2.689,0,0,0-1.6.45,1.513,1.513,0,0,0-.63,1.314,1.773,1.773,0,0,0,.216.909,1.93,1.93,0,0,0,.8.675,10.473,10.473,0,0,0,1.7.648,11.08,11.08,0,0,1,1.944.774A3.371,3.371,0,0,1,23.931-5.3a3.306,3.306,0,0,1,.477,1.845,3.457,3.457,0,0,1-.531,1.908,3.552,3.552,0,0,1-1.53,1.3A5.535,5.535,0,0,1,19.98.216a5.771,5.771,0,0,1-4.212-1.6L16.7-2.43a6.1,6.1,0,0,0,1.53.927,4.546,4.546,0,0,0,1.728.315,3.092,3.092,0,0,0,1.908-.567A1.932,1.932,0,0,0,22.626-3.4a2.009,2.009,0,0,0-.234-1.017,2.085,2.085,0,0,0-.8-.729A8.212,8.212,0,0,0,19.944-5.8a7.247,7.247,0,0,1-2.79-1.386,2.835,2.835,0,0,1-.882-2.2,2.936,2.936,0,0,1,.495-1.674A3.294,3.294,0,0,1,18.153-12.2,4.752,4.752,0,0,1,20.178-12.618ZM33.444,0l-.936-3.114h-4.7L26.874,0H25.146l3.978-12.4h2.16L35.244,0Zm-5.22-4.5h3.87l-1.926-6.48Z" transform="translate(1288 3702)"/></g></svg>