<svg xmlns="http://www.w3.org/2000/svg" viewBox="0 0 256 123"><defs><style>.a{fill:none;}.b,.c{stroke:none;}.c{fill:#002d72;}</style></defs><g transform="translate(-112 -50)"><g transform="translate(112 50)"><g class="a"><path class="b" d="M55.856,7.022c6.222,4.682,9.37,11.558,9.37,20.555,0,9.363-3,16.459-8.931,21.433S42.386,56.4,32.284,56.4H24.231V82H0V0H29.575C40.849,0,49.56,2.341,55.856,7.022ZM40.409,27.577q0-10.753-11.2-10.753H24.231v22.53h5.637C36.969,39.354,40.409,35.4,40.409,27.577Z"/><path class="c" d="M 2.000003814697266 1.999992370605469 L 2.000003814697266 79.99997711181641 L 22.23105239868164 79.99997711181641 L 22.23105239868164 56.39784240722656 L 22.23105239868164 54.39784240722656 L 24.23105239868164 54.39784240722656 L 32.28367614746094 54.39784240722656 C 37.12928009033203 54.39784240722656 41.49791717529297 53.81209182739258 45.26825332641602 52.65686798095703 C 48.99736785888672 51.51426696777344 52.27487945556641 49.77169418334961 55.00974273681641 47.47753143310547 C 57.7222900390625 45.20209121704102 59.78452682495117 42.40621566772461 61.13915252685547 39.16757965087891 C 62.52400207519531 35.85670471191406 63.22617721557617 31.95713043212891 63.22617721557617 27.57715606689453 C 63.22617721557617 23.39164352416992 62.49567794799805 19.66866683959961 61.05495452880859 16.51164245605469 C 59.63775634765625 13.40615081787109 57.48564529418945 10.75245666503906 54.65819549560547 8.624061584472656 C 51.72614669799805 6.444717407226563 48.16216278076172 4.783843994140625 44.06523895263672 3.687606811523438 C 39.88018798828125 2.567794799804688 35.00498962402344 1.999992370605469 29.57505416870117 1.999992370605469 L 2.000003814697266 1.999992370605469 M 29.86787796020508 41.35414123535156 L 24.23105239868164 41.35414123535156 L 22.23105239868164 41.35414123535156 L 22.23105239868164 39.35414123535156 L 22.23105239868164 16.82426452636719 L 22.23105239868164 14.82426452636719 L 24.23105239868164 14.82426452636719 L 29.20902633666992 14.82426452636719 C 37.72147750854492 14.82426452636719 42.40949249267578 19.35332870483398 42.40949249267578 27.57715606689453 C 42.40949249267578 38.96396636962891 35.58930206298828 41.35414123535156 29.86787796020508 41.35414123535156 M 0 -7.62939453125e-06 L 29.57505416870117 -7.62939453125e-06 C 40.84871673583984 -7.62939453125e-06 49.56018829345703 2.340766906738281 55.85586547851563 7.022308349609375 C 62.07833862304688 11.70382690429688 65.22618103027344 18.57984161376953 65.22618103027344 27.57715606689453 C 65.22618103027344 36.94023132324219 62.22475433349609 44.03567886352539 56.29510498046875 49.00980377197266 C 50.36545181274414 53.98393249511719 42.38605499267578 56.39784240722656 32.28367614746094 56.39784240722656 L 24.23105239868164 56.39784240722656 L 24.23105239868164 81.99997711181641 L 0 81.99997711181641 L 0 -7.62939453125e-06 Z M 29.86787796020508 39.35414123535156 C 36.96882629394531 39.35414123535156 40.40949249267578 35.40409088134766 40.40949249267578 27.57715606689453 C 40.40949249267578 20.40855407714844 36.67600250244141 16.82426452636719 29.20902633666992 16.82426452636719 L 24.23105239868164 16.82426452636719 L 24.23105239868164 39.35414123535156 L 29.86787796020508 39.35414123535156 Z"/></g><g class="a" transform="translate(-34.967)"><path class="b" d="M201.07,0,182.33,36.428,203.193,82H177.132L161.905,48.059h-7.1V82H130.5V0h24.3V31.015h7.687L177.718,0Z"/><path class="c" d="M 132.4999694824219 1.999992370605469 L 132.4999694824219 79.99997711181641 L 152.8042297363281 79.99997711181641 L 152.8042297363281 48.05886840820313 L 152.8042297363281 46.05886840820313 L 154.8042297363281 46.05886840820313 L 161.9051666259766 46.05886840820313 L 163.1999664306641 46.05886840820313 L 163.7299652099609 47.24023056030273 L 178.4267425537109 79.99997711181641 L 200.0778656005859 79.99997711181641 L 180.5110626220703 37.26071548461914 L 180.1066131591797 36.37725448608398 L 180.5511016845703 35.51324081420898 L 197.7921142578125 1.999992370605469 L 178.9637451171875 1.999992370605469 L 164.2861328125 31.89655303955078 L 163.7369537353516 33.01515579223633 L 162.4908142089844 33.01515579223633 L 154.8042297363281 33.01515579223633 L 152.8042297363281 33.01515579223633 L 152.8042297363281 31.01515579223633 L 152.8042297363281 1.999992370605469 L 132.4999694824219 1.999992370605469 M 130.4999694824219 -7.62939453125e-06 L 154.8042297363281 -7.62939453125e-06 L 154.8042297363281 31.01515579223633 L 162.4908142089844 31.01515579223633 L 177.7176055908203 -7.62939453125e-06 L 201.0701751708984 -7.62939453125e-06 L 182.3295593261719 36.42818069458008 L 203.1931457519531 81.99997711181641 L 177.1319427490234 81.99997711181641 L 161.9051666259766 48.05886840820313 L 154.8042297363281 48.05886840820313 L 154.8042297363281 81.99997711181641 L 130.4999694824219 81.99997711181641 L 130.4999694824219 -7.62939453125e-06 Z"/></g><g class="a" transform="translate(-69.799)"><path class="b" d="M325.8,0,323.31,18.141H304.716V82h-24.3V18.141H260.5V0Z"/><path class="c" d="M 262.4999694824219 1.999992370605469 L 262.4999694824219 16.14094543457031 L 280.4119262695313 16.14094543457031 L 282.4119262695313 16.14094543457031 L 282.4119262695313 18.14094543457031 L 282.4119262695313 80 L 302.7161254882813 80 L 302.7161254882813 18.14094543457031 L 302.7161254882813 16.14094543457031 L 304.7161254882813 16.14094543457031 L 321.5661010742188 16.14094543457031 L 323.5062255859375 1.999992370605469 L 262.4999694824219 1.999992370605469 M 260.4999694824219 -7.62939453125e-06 L 325.7993774414063 -7.62939453125e-06 L 323.3104248046875 18.14094543457031 L 304.7161254882813 18.14094543457031 L 304.7161254882813 82 L 280.4119262695313 82 L 280.4119262695313 18.14094543457031 L 260.4999694824219 18.14094543457031 L 260.4999694824219 -7.62939453125e-06 Z"/></g></g><g transform="translate(112 159)"><g class="a" transform="translate(0 -149.9)"><path class="b" d="M7.174,160.653H6.222v-5.773c0-1.66.073-2.959.146-3.969l-5.2,9.742H0V149.9H.952v5.773c0,1.443-.073,2.742-.146,3.969L6,149.9H7.174Z"/><path class="c" d="M 7.174144268035889 160.652587890625 L 6.222474098205566 160.652587890625 L 6.222474098205566 154.8793792724609 C 6.222474098205566 153.2195739746094 6.295683860778809 151.9206085205078 6.368884086608887 150.9102935791016 L 1.171294093132019 160.652587890625 L 4.041366537421709e-06 160.652587890625 L 4.041366537421709e-06 149.8999938964844 L 0.9516740441322327 149.8999938964844 L 0.9516740441322327 155.6732025146484 C 0.9516740441322327 157.1165008544922 0.8784640431404114 158.4154663085938 0.8052640557289124 159.6422729492188 L 6.002853870391846 149.8999938964844 L 7.174144268035889 149.8999938964844 L 7.174144268035889 160.652587890625 Z"/></g><g class="a" transform="translate(-3.885 -150.874)"><path class="b" d="M19.624,161.627v-3.9H15.452v3.9H14.5V153.4h.952v3.608h4.173V153.4h.952v8.227Z"/><path class="c" d="M 20.57605934143066 161.6268005371094 L 19.6243896484375 161.6268005371094 L 19.6243896484375 157.7299041748047 L 15.45166873931885 157.7299041748047 L 15.45166873931885 161.6268005371094 L 14.49999904632568 161.6268005371094 L 14.49999904632568 153.4000091552734 L 15.45166873931885 153.4000091552734 L 15.45166873931885 157.0082550048828 L 19.6243896484375 157.0082550048828 L 19.6243896484375 153.4000091552734 L 20.57605934143066 153.4000091552734 L 20.57605934143066 161.6268005371094 Z"/></g><g class="a" transform="translate(-6.859 -150.874)"><path class="b" d="M35.483,153.4l-2.123,3.825,2.489,4.4H34.824l-2.2-3.969H31.237v3.969h-.952v-3.969H28.894l-2.269,3.969H25.6l2.489-4.4L25.966,153.4h.952l1.9,3.536h1.464V153.4h.878v3.536h1.391l1.9-3.536Z"/><path class="c" d="M 25.96603012084961 153.3999938964844 L 26.91769027709961 153.3999938964844 L 28.82104110717773 156.9360656738281 L 30.28516006469727 156.9360656738281 L 30.28516006469727 153.3999938964844 L 31.16361999511719 153.3999938964844 L 31.16361999511719 156.9360656738281 L 32.55452728271484 156.9360656738281 L 34.45787048339844 153.3999938964844 L 35.48274993896484 153.3999938964844 L 33.35979080200195 157.2247314453125 L 35.84877777099609 161.6268005371094 L 34.82389831542969 161.6268005371094 L 32.62773132324219 157.6577301025391 L 31.23682022094727 157.6577301025391 L 31.23682022094727 161.6268005371094 L 30.28516006469727 161.6268005371094 L 30.28516006469727 157.6577301025391 L 28.89424896240234 157.6577301025391 L 26.62487030029297 161.6268005371094 L 25.59999847412109 161.6268005371094 L 28.0889892578125 157.2247314453125 L 25.96603012084961 153.3999938964844 Z"/></g><g class="a" transform="translate(-11.12 -150.763)"><path class="b" d="M48.015,157.763H42.452a3.57,3.57,0,0,0,.805,2.381,2.4,2.4,0,0,0,1.83.794,3.073,3.073,0,0,0,1.171-.217,4.383,4.383,0,0,0,1.1-.649l.439.577a3.707,3.707,0,0,1-1.244.722,4.783,4.783,0,0,1-1.464.216,3.4,3.4,0,0,1-2.635-1.082,4.516,4.516,0,0,1-.952-3.1,5.661,5.661,0,0,1,.439-2.309,3.552,3.552,0,0,1,1.171-1.515A3.007,3.007,0,0,1,44.867,153a2.759,2.759,0,0,1,2.416,1.082,4.381,4.381,0,0,1,.805,2.887A3.492,3.492,0,0,0,48.015,157.763Zm-.878-1.01a3.643,3.643,0,0,0-.586-2.165,2.043,2.043,0,0,0-1.757-.794,2.2,2.2,0,0,0-1.684.794,4.012,4.012,0,0,0-.732,2.381h4.685v-.216Z"/><path class="c" d="M 45.08707046508789 161.587646484375 C 43.98899078369141 161.587646484375 43.11051940917969 161.226806640625 42.4516716003418 160.5051574707031 C 41.79281997680664 159.7835235595703 41.5 158.7010498046875 41.5 157.4020690917969 C 41.5 156.5361022949219 41.64641189575195 155.7422790527344 41.93923187255859 155.0927886962891 C 42.23205184936523 154.4432983398438 42.59807968139648 153.9381561279297 43.11051940917969 153.5773315429688 C 43.62295150756836 153.2165069580078 44.20859909057617 153 44.86745071411133 153 C 45.96554183959961 153 46.77079010009766 153.3608245849609 47.28322982788086 154.0824737548828 C 47.86888122558594 154.8041229248047 48.0885009765625 155.7422790527344 48.0885009765625 156.9690856933594 C 48.01530075073242 157.3298950195313 48.01530075073242 157.54638671875 48.01530075073242 157.7628784179688 L 42.45167922973633 157.7628784179688 C 42.52487945556641 158.8453521728516 42.74449157714844 159.6391754150391 43.25693130493164 160.1443328857422 C 43.69615936279297 160.6494903564453 44.35501861572266 160.9381561279297 45.08707046508789 160.9381561279297 C 45.52630996704102 160.9381561279297 45.89233016967773 160.8659820556641 46.25836181640625 160.7216491699219 C 46.6243896484375 160.5773315429688 46.99042129516602 160.3608245849609 47.35644912719727 160.0721740722656 L 47.79568099975586 160.6495056152344 C 47.35644912719727 161.0103302001953 46.99042129516602 161.226806640625 46.55118942260742 161.3711547851563 C 46.1119499206543 161.5154724121094 45.59951019287109 161.587646484375 45.08707046508789 161.587646484375 Z M 44.79425048828125 153.7938079833984 C 44.13539886474609 153.7938079833984 43.54975128173828 154.0824584960938 43.11051940917969 154.5876159667969 C 42.67129135131836 155.0927886962891 42.4516716003418 155.8865814208984 42.37845993041992 156.9690704345703 L 47.06362152099609 156.9690704345703 L 47.06362152099609 156.7525787353516 L 47.1368293762207 156.7525787353516 C 47.1368293762207 155.8144378662109 46.91720962524414 155.0927886962891 46.55118942260742 154.5876159667969 C 46.18515014648438 154.0824584960938 45.59951019287109 153.7938079833984 44.79425048828125 153.7938079833984 Z"/></g><g class="a" transform="translate(-14.469 -150.874)"><path class="b" d="M59.124,161.627v-3.9H54.952v3.9H54V153.4h.952v3.608h4.173V153.4h.952v8.227Z"/><path class="c" d="M 60.07605743408203 161.6268005371094 L 59.1243896484375 161.6268005371094 L 59.1243896484375 157.7299041748047 L 54.95166778564453 157.7299041748047 L 54.95166778564453 161.6268005371094 L 54 161.6268005371094 L 54 153.4000091552734 L 54.95166778564453 153.4000091552734 L 54.95166778564453 157.0082550048828 L 59.1243896484375 157.0082550048828 L 59.1243896484375 153.4000091552734 L 60.07605743408203 153.4000091552734 L 60.07605743408203 161.6268005371094 Z"/></g><g class="a" transform="translate(-17.684 -150.763)"><path class="b" d="M72.515,157.763H66.952a3.57,3.57,0,0,0,.805,2.381,2.4,2.4,0,0,0,1.83.794,3.073,3.073,0,0,0,1.171-.217,4.382,4.382,0,0,0,1.1-.649l.439.577a3.707,3.707,0,0,1-1.244.722,4.783,4.783,0,0,1-1.464.216,3.4,3.4,0,0,1-2.635-1.082A4.516,4.516,0,0,1,66,157.4a5.661,5.661,0,0,1,.439-2.309,3.552,3.552,0,0,1,1.171-1.515A3.007,3.007,0,0,1,69.367,153a2.759,2.759,0,0,1,2.416,1.082,4.382,4.382,0,0,1,.805,2.887A3.492,3.492,0,0,0,72.515,157.763Zm-.878-1.01a3.643,3.643,0,0,0-.586-2.165,2.043,2.043,0,0,0-1.757-.794,2.2,2.2,0,0,0-1.684.794,4.012,4.012,0,0,0-.732,2.381h4.685v-.216Z"/><path class="c" d="M 69.58708190917969 161.587646484375 C 68.48899078369141 161.587646484375 67.61052703857422 161.226806640625 66.95166778564453 160.5051574707031 C 66.29282379150391 159.7835235595703 66 158.7010498046875 66 157.4020690917969 C 66 156.5361022949219 66.14640045166016 155.7422790527344 66.43922424316406 155.0927886962891 C 66.73206329345703 154.4432983398438 67.09808349609375 153.9381561279297 67.61051940917969 153.5773315429688 C 68.12294769287109 153.2165069580078 68.70858764648438 153 69.36744689941406 153 C 70.46555328369141 153 71.27079772949219 153.3608245849609 71.78324890136719 154.0824737548828 C 72.36890411376953 154.8041229248047 72.5885009765625 155.7422790527344 72.5885009765625 156.9690856933594 C 72.51529693603516 157.3298950195313 72.51529693603516 157.54638671875 72.51529693603516 157.7628784179688 L 66.95166778564453 157.7628784179688 C 67.02487945556641 158.8453521728516 67.24449920654297 159.6391754150391 67.75692749023438 160.1443328857422 C 68.19615936279297 160.6494903564453 68.85501861572266 160.9381561279297 69.58708190917969 160.9381561279297 C 70.02631378173828 160.9381561279297 70.392333984375 160.8659820556641 70.75835418701172 160.7216491699219 C 71.1243896484375 160.5773315429688 71.49041748046875 160.3608245849609 71.85643768310547 160.0721740722656 L 72.29567718505859 160.6495056152344 C 71.85643768310547 161.0103302001953 71.49041748046875 161.226806640625 71.05119323730469 161.3711547851563 C 70.61195373535156 161.5154724121094 70.09951782226563 161.587646484375 69.58708190917969 161.587646484375 Z M 69.29425048828125 153.7938079833984 C 68.63539123535156 153.7938079833984 68.04975128173828 154.0824584960938 67.61051940917969 154.5876159667969 C 67.17127990722656 155.0927886962891 66.95166015625 155.8865814208984 66.87846374511719 156.9690704345703 L 71.56362152099609 156.9690704345703 L 71.56362152099609 156.7525787353516 L 71.63681793212891 156.7525787353516 C 71.63681793212891 155.8144378662109 71.41721343994141 155.0927886962891 71.05117797851563 154.5876159667969 C 70.68514251708984 154.0824584960938 70.09950256347656 153.7938079833984 69.29425048828125 153.7938079833984 Z"/></g><g class="a" transform="translate(-21.034 -150.815)"><path class="b" d="M84.283,154.279a5.43,5.43,0,0,1,.732,3.1,5.839,5.839,0,0,1-.805,3.175,2.6,2.6,0,0,1-2.343,1.155,3.007,3.007,0,0,1-1.391-.289,3.839,3.839,0,0,1-1.025-.794v4.041l-.952.144V153.341h.805l.073,1.227a2.919,2.919,0,0,1,1.1-1.01,3.371,3.371,0,0,1,1.464-.361A2.4,2.4,0,0,1,84.283,154.279Zm-.878,5.773a4.539,4.539,0,0,0,.586-2.67q0-3.464-2.2-3.464a2.555,2.555,0,0,0-1.318.361,3.388,3.388,0,0,0-1.025,1.01v4.4a2.51,2.51,0,0,0,2.2,1.227A1.925,1.925,0,0,0,83.4,160.052Z"/><path class="c" d="M 82.19229888916016 153.1875 C 83.0977783203125 153.1875 83.81348419189453 153.5513000488281 84.28323364257813 154.2789916992188 C 84.79566192626953 155.0006408691406 85.01528167724609 156.0830993652344 85.01528167724609 157.382080078125 C 85.01528167724609 158.6810455322266 84.72245788574219 159.7635192871094 84.21002197265625 160.5573425292969 C 83.69759368896484 161.3511657714844 82.89232635498047 161.7119750976563 81.86745452880859 161.7119750976563 C 81.35501098632813 161.7119750976563 80.915771484375 161.6398162841797 80.47654724121094 161.4233093261719 C 80.03730773925781 161.2068176269531 79.74449157714844 160.9181823730469 79.45166778564453 160.6295013427734 L 79.45166778564453 164.6707458496094 L 78.49999237060547 164.8150787353516 L 78.49999237060547 153.3408508300781 L 79.30525207519531 153.3408508300781 L 79.37844085693359 154.5676574707031 C 79.67128753662109 154.1346740722656 80.03730773925781 153.7738342285156 80.47653198242188 153.5573577880859 C 80.915771484375 153.3408508300781 81.42820739746094 153.1965179443359 81.94065093994141 153.1965179443359 C 82.02603912353516 153.1905059814453 82.11000061035156 153.1875 82.19229888916016 153.1875 Z M 81.6478271484375 160.9181518554688 C 82.45309448242188 160.9181518554688 83.03873443603516 160.6295013427734 83.40476226806641 160.0521850585938 C 83.843994140625 159.474853515625 83.99040222167969 158.5367126464844 83.99040222167969 157.382080078125 C 83.99040222167969 155.0727996826172 83.25834655761719 153.9181518554688 81.79424285888672 153.9181518554688 C 81.28179168701172 153.9181518554688 80.84256744384766 154.0624847412109 80.47653198242188 154.2789916992188 C 80.11050415039063 154.4954833984375 79.74448394775391 154.8563232421875 79.45166778564453 155.2892761230469 L 79.45166778564453 159.6913757324219 C 80.03730773925781 160.5573425292969 80.76936340332031 160.9181518554688 81.6478271484375 160.9181518554688 Z"/></g><g class="a" transform="translate(-24.41 -150.874)"><path class="b" d="M96.224,161.627v-3.9H92.052v3.9H91.1V153.4h.952v3.608h4.173V153.4h.952v8.227Z"/><path class="c" d="M 97.17607116699219 161.6268005371094 L 96.22438049316406 161.6268005371094 L 96.22438049316406 157.7299041748047 L 92.05167388916016 157.7299041748047 L 92.05167388916016 161.6268005371094 L 91.09999847412109 161.6268005371094 L 91.09999847412109 153.4000091552734 L 92.05167388916016 153.4000091552734 L 92.05167388916016 157.0082550048828 L 96.22438049316406 157.0082550048828 L 96.22438049316406 153.4000091552734 L 97.17607116699219 153.4000091552734 L 97.17607116699219 161.6268005371094 Z"/></g><g class="a" transform="translate(-27.866 -150.874)"><path class="b" d="M109.564,158.812a2.552,2.552,0,0,1-.878,2.093,3.291,3.291,0,0,1-2.269.722H104V153.4h.952v2.742h1.318C108.466,156.142,109.564,157.008,109.564,158.812Zm-1.537,1.588a1.939,1.939,0,0,0,.586-1.515,1.749,1.749,0,0,0-.512-1.443,2.515,2.515,0,0,0-1.83-.505h-1.318v3.969h1.391A3.306,3.306,0,0,0,108.026,160.4Zm3.075-7h.952v8.227H111.1Z"/><path class="c" d="M 112.0525970458984 161.6267852783203 L 111.1009216308594 161.6267852783203 L 111.1009216308594 153.3999938964844 L 112.0525970458984 153.3999938964844 L 112.0525970458984 161.6267852783203 Z M 106.415771484375 161.6267852783203 L 103.9999694824219 161.6267852783203 L 103.9999694824219 153.3999938964844 L 104.95166015625 153.3999938964844 L 104.95166015625 156.1422424316406 L 106.2693634033203 156.1422424316406 C 108.4655227661133 156.1422424316406 109.563606262207 157.0082397460938 109.563606262207 158.8123626708984 C 109.563606262207 159.75048828125 109.2707824707031 160.3999786376953 108.6851425170898 160.9051208496094 C 108.099494934082 161.4102783203125 107.367431640625 161.6267852783203 106.415771484375 161.6267852783203 Z M 104.95166015625 156.9360656738281 L 104.95166015625 160.9051513671875 L 106.3425598144531 160.9051513671875 C 107.0746154785156 160.8329772949219 107.6602630615234 160.6886444091797 108.0262908935547 160.3999938964844 C 108.3923263549805 160.1113433837891 108.611946105957 159.5340118408203 108.611946105957 158.884521484375 C 108.611946105957 158.2350463867188 108.4655227661133 157.7298889160156 108.099494934082 157.4412384033203 C 107.7334747314453 157.0803985595703 107.147819519043 156.9360656738281 106.2693634033203 156.9360656738281 L 104.95166015625 156.9360656738281 Z"/></g><g class="a" transform="translate(-31.805 -150.763)"><path class="b" d="M125.215,157.763h-5.564a3.57,3.57,0,0,0,.805,2.381,2.4,2.4,0,0,0,1.83.794,3.073,3.073,0,0,0,1.171-.217,4.382,4.382,0,0,0,1.1-.649l.439.577a3.707,3.707,0,0,1-1.245.722,4.783,4.783,0,0,1-1.464.216,3.4,3.4,0,0,1-2.635-1.082,4.516,4.516,0,0,1-.952-3.1,5.661,5.661,0,0,1,.439-2.309,3.552,3.552,0,0,1,1.171-1.515,3.007,3.007,0,0,1,1.757-.577,2.759,2.759,0,0,1,2.416,1.082,4.382,4.382,0,0,1,.805,2.887A2.434,2.434,0,0,1,125.215,157.763Zm-.878-1.01a3.643,3.643,0,0,0-.586-2.165,2.043,2.043,0,0,0-1.757-.794,2.2,2.2,0,0,0-1.684.794,4.012,4.012,0,0,0-.732,2.381h4.685v-.216Z"/><path class="c" d="M 122.2870635986328 161.587646484375 C 121.1889801025391 161.587646484375 120.3105087280273 161.226806640625 119.6516647338867 160.5051574707031 C 118.9928131103516 159.7835235595703 118.6999816894531 158.7010498046875 118.6999816894531 157.4020690917969 C 118.6999816894531 156.5361022949219 118.8463897705078 155.7422790527344 119.1392211914063 155.0927886962891 C 119.4320449829102 154.4432983398438 119.7980804443359 153.9381561279297 120.3105010986328 153.5773315429688 C 120.8229293823242 153.2165069580078 121.4085998535156 153 122.0674438476563 153 C 123.1655349731445 153 123.9707794189453 153.3608245849609 124.4832305908203 154.0824737548828 C 125.0688858032227 154.8041229248047 125.2884826660156 155.7422790527344 125.2884826660156 156.9690856933594 C 125.2884826660156 157.3298950195313 125.2884826660156 157.54638671875 125.2152709960938 157.7628784179688 L 119.6516647338867 157.7628784179688 C 119.7248687744141 158.8453521728516 119.9444885253906 159.6391754150391 120.4569244384766 160.1443328857422 C 120.8961486816406 160.6494903564453 121.5550155639648 160.9381561279297 122.2870635986328 160.9381561279297 C 122.7262954711914 160.9381561279297 123.0923309326172 160.8659820556641 123.4583435058594 160.7216491699219 C 123.8243789672852 160.5773315429688 124.1903991699219 160.3608245849609 124.5564193725586 160.0721740722656 L 124.9956588745117 160.6495056152344 C 124.5564193725586 161.0103302001953 124.1903991699219 161.226806640625 123.7511596679688 161.3711547851563 C 123.3119354248047 161.5154724121094 122.7994995117188 161.587646484375 122.2870635986328 161.587646484375 Z M 121.9942321777344 153.7938079833984 C 121.3353958129883 153.7938079833984 120.7497406005859 154.0824584960938 120.3105010986328 154.5876159667969 C 119.8712692260742 155.0927886962891 119.6516418457031 155.8865814208984 119.5784454345703 156.9690704345703 L 124.2636108398438 156.9690704345703 L 124.2636108398438 156.7525787353516 L 124.3368148803711 156.7525787353516 C 124.3368148803711 155.8144378662109 124.1171951293945 155.0927886962891 123.7511596679688 154.5876159667969 C 123.385139465332 154.0824584960938 122.7994995117188 153.7938079833984 121.9942321777344 153.7938079833984 Z"/></g><g class="a" transform="translate(-36.521 -150.808)"><path class="b" d="M141.2,153.333a4.383,4.383,0,0,1,1.1.65l-.439.577a5.481,5.481,0,0,0-.878-.505,4.38,4.38,0,0,0-1.025-.144,2.241,2.241,0,0,0-1.9.938,4.482,4.482,0,0,0-.732,2.67,4.261,4.261,0,0,0,.659,2.6,2.278,2.278,0,0,0,1.9.866,4.378,4.378,0,0,0,1.025-.144c.293-.144.586-.289.952-.505l.439.577a3.671,3.671,0,0,1-2.416.866,3.417,3.417,0,0,1-1.9-.505,3.475,3.475,0,0,1-1.244-1.443,5.428,5.428,0,0,1-.439-2.309,5.661,5.661,0,0,1,.439-2.309,3.7,3.7,0,0,1,1.244-1.515,3.178,3.178,0,0,1,1.83-.505A2.754,2.754,0,0,1,141.2,153.333Z"/><path class="c" d="M 140.2545623779297 153.1607666015625 C 140.6296997070313 153.1607666015625 140.9368133544922 153.2277374267578 141.2047729492188 153.3333892822266 C 141.57080078125 153.4777374267578 141.9368133544922 153.6942138671875 142.3028411865234 153.9828948974609 L 141.8636169433594 154.5602111816406 C 141.57080078125 154.3437194824219 141.2779693603516 154.1993865966797 140.9851531982422 154.0550384521484 C 140.6923370361328 153.9828948974609 140.3263092041016 153.9107208251953 139.9602813720703 153.9107208251953 C 139.1550140380859 153.9107208251953 138.5693664550781 154.1993865966797 138.0569305419922 154.8488464355469 C 137.6176910400391 155.4261932373047 137.3248748779297 156.3643341064453 137.3248748779297 157.5189819335938 C 137.3248748779297 158.6736145019531 137.5444946289063 159.5396118164063 137.9837188720703 160.1169281005859 C 138.4229431152344 160.6942291259766 139.081787109375 160.98291015625 139.8870697021484 160.98291015625 C 140.2530822753906 160.98291015625 140.6191253662109 160.9107360839844 140.9119262695313 160.8385620117188 C 141.2047424316406 160.6942291259766 141.4975891113281 160.5499114990234 141.8636169433594 160.3333892822266 L 142.3028411865234 160.9107360839844 C 141.57080078125 161.4880523681641 140.8387298583984 161.7767181396484 139.8870697021484 161.7767181396484 C 139.1550140380859 161.7767181396484 138.5693664550781 161.6323852539063 137.9837188720703 161.2715606689453 C 137.4712829589844 160.9107360839844 137.0320281982422 160.4777526855469 136.7392272949219 159.8282623291016 C 136.4464111328125 159.1787872314453 136.2999877929688 158.4571380615234 136.2999877929688 157.5189819335938 C 136.2999877929688 156.6529998779297 136.4463958740234 155.8591918945313 136.7392272949219 155.2097015380859 C 137.0320281982422 154.5602264404297 137.4712829589844 154.0550537109375 137.9837188720703 153.6942291259766 C 138.4961395263672 153.3334045410156 139.1550140380859 153.1890869140625 139.8138580322266 153.1890869140625 C 139.9707794189453 153.1697540283203 140.1172637939453 153.1607666015625 140.2545623779297 153.1607666015625 Z"/></g><g class="a" transform="translate(-39.227 -150.763)"><path class="b" d="M152.915,157.763h-5.564a3.569,3.569,0,0,0,.805,2.381,2.4,2.4,0,0,0,1.83.794,3.073,3.073,0,0,0,1.171-.217,4.382,4.382,0,0,0,1.1-.649l.439.577a3.708,3.708,0,0,1-1.245.722,4.783,4.783,0,0,1-1.464.216,3.4,3.4,0,0,1-2.635-1.082,4.516,4.516,0,0,1-.952-3.1,5.661,5.661,0,0,1,.439-2.309,3.552,3.552,0,0,1,1.171-1.515,3.007,3.007,0,0,1,1.757-.577,2.759,2.759,0,0,1,2.416,1.082,4.382,4.382,0,0,1,.805,2.887A3.491,3.491,0,0,0,152.915,157.763Zm-.878-1.01a3.643,3.643,0,0,0-.586-2.165,2.043,2.043,0,0,0-1.757-.794,2.2,2.2,0,0,0-1.684.794,4.013,4.013,0,0,0-.732,2.381h4.685v-.216Z"/><path class="c" d="M 149.9870758056641 161.587646484375 C 148.8889770507813 161.587646484375 148.0105133056641 161.226806640625 147.3516540527344 160.5051574707031 C 146.6928100585938 159.7835235595703 146.3999786376953 158.7010498046875 146.3999786376953 157.4020690917969 C 146.3999786376953 156.5361022949219 146.54638671875 155.7422790527344 146.8392333984375 155.0927886962891 C 147.1320495605469 154.4432983398438 147.4980773925781 153.9381561279297 148.0105133056641 153.5773315429688 C 148.52294921875 153.2165069580078 149.1086120605469 153 149.7674407958984 153 C 150.8655395507813 153 151.6707916259766 153.3608245849609 152.1832427978516 154.0824737548828 C 152.7688751220703 154.8041229248047 152.9884948730469 155.7422790527344 152.9884948730469 156.9690856933594 C 152.9152679443359 157.3298950195313 152.9152679443359 157.54638671875 152.9152679443359 157.7628784179688 L 147.3516540527344 157.7628784179688 C 147.4248504638672 158.8453521728516 147.6444702148438 159.6391754150391 148.1569061279297 160.1443328857422 C 148.5961608886719 160.6494903564453 149.2550048828125 160.9381561279297 149.9870452880859 160.9381561279297 C 150.4262847900391 160.9381561279297 150.7923278808594 160.8659820556641 151.1583404541016 160.7216491699219 C 151.5243835449219 160.5773315429688 151.8903961181641 160.3608245849609 152.2564239501953 160.0721740722656 L 152.6956787109375 160.6495056152344 C 152.2564239501953 161.0103302001953 151.8903961181641 161.226806640625 151.451171875 161.3711547851563 C 151.0119476318359 161.5154724121094 150.4994964599609 161.587646484375 149.9870758056641 161.587646484375 Z M 149.6942443847656 153.7938079833984 C 149.035400390625 153.7938079833984 148.4497375488281 154.0824584960938 148.010498046875 154.5876159667969 C 147.5712738037109 155.0927886962891 147.3516540527344 155.8865814208984 147.2784423828125 156.9690704345703 L 151.9636077880859 156.9690704345703 L 151.9636077880859 156.7525787353516 L 152.0368041992188 156.7525787353516 C 152.0368041992188 155.8144378662109 151.8171844482422 155.0927886962891 151.451171875 154.5876159667969 C 151.0851440429688 154.0824584960938 150.4994964599609 153.7938079833984 149.6942443847656 153.7938079833984 Z"/></g><g class="a" transform="translate(-41.853 -150.874)"><path class="b" d="M162.935,153.4l-.146.794h-2.782v7.433h-.952v-7.433H156.2V153.4Z"/><path class="c" d="M 156.1999816894531 153.3999938964844 L 162.9348907470703 153.3999938964844 L 162.7884826660156 154.1938171386719 L 160.0066680908203 154.1938171386719 L 160.0066680908203 161.6268005371094 L 159.0549926757813 161.6268005371094 L 159.0549926757813 154.1938171386719 L 156.1999816894531 154.1938171386719 L 156.1999816894531 153.3999938964844 Z"/></g><g class="a" transform="translate(-44.961 -150.846)"><path class="b" d="M173.876,161.6H173v-5.124a20.69,20.69,0,0,1,.073-2.093l-4.173,7.144h-1.1V153.3h.952v4.835c0,.505,0,1.3-.073,2.309l4.173-7.144h1.1v8.3Z"/><path class="c" d="M 173.9492797851563 161.5989685058594 L 173.8760681152344 161.5989685058594 L 172.9976196289063 161.5989685058594 L 172.9976196289063 156.4752349853516 C 172.9976196289063 155.8257598876953 172.9976196289063 155.1040954589844 173.0708312988281 154.3824462890625 L 168.8981018066406 161.5267944335938 L 167.8000183105469 161.5267944335938 L 167.8000183105469 153.2999877929688 L 168.7516784667969 153.2999877929688 L 168.7516784667969 158.1350402832031 C 168.7516784667969 158.6401977539063 168.7516784667969 159.4340209960938 168.6784820556641 160.4443054199219 L 172.8511962890625 153.2999877929688 L 173.9492797851563 153.2999877929688 L 173.9492797851563 161.5989685058594 Z"/></g><g class="a" transform="translate(-50.052 -150.846)"><path class="b" d="M192.876,161.6H192v-5.124a20.694,20.694,0,0,1,.073-2.093l-4.173,7.144h-1.1V153.3h.952v4.835c0,.505,0,1.3-.073,2.309l4.173-7.144h1.1v8.3Z"/><path class="c" d="M 192.9492797851563 161.5989685058594 L 192.8760681152344 161.5989685058594 L 191.9976043701172 161.5989685058594 L 191.9976043701172 156.4752349853516 C 191.9976043701172 155.8257598876953 191.9976043701172 155.1040954589844 192.07080078125 154.3824462890625 L 187.8981018066406 161.5267944335938 L 186.8000183105469 161.5267944335938 L 186.8000183105469 153.2999877929688 L 187.7516784667969 153.2999877929688 L 187.7516784667969 158.1350402832031 C 187.7516784667969 158.6401977539063 187.7516784667969 159.4340209960938 187.6784820556641 160.4443054199219 L 191.8511810302734 153.2999877929688 L 192.9492797851563 153.2999877929688 L 192.9492797851563 161.5989685058594 Z"/></g><g class="a" transform="translate(-55.116 -150.874)"><path class="b" d="M211.337,153.4l-2.635,3.825,3,4.4h-1.1l-2.709-4.041h-1.245v4.041H205.7V153.4h.952v3.464H207.9l2.343-3.464h1.1Z"/><path class="c" d="M 211.3367919921875 153.3999938964844 L 211.3367919921875 153.4000091552734 L 211.3367919921875 153.3999938964844 Z M 205.6999816894531 153.4000091552734 L 206.6516418457031 153.4000091552734 L 206.6516418457031 156.8639221191406 L 207.8961486816406 156.8639221191406 L 210.2387084960938 153.4000091552734 L 211.3367919921875 153.4000091552734 L 208.701416015625 157.2247314453125 L 211.7028198242188 161.6268005371094 L 210.6047668457031 161.6268005371094 L 207.8961486816406 157.5855407714844 L 206.6516418457031 157.5855407714844 L 206.6516418457031 161.6268005371094 L 205.6999816894531 161.6268005371094 L 205.6999816894531 153.4000091552734 Z"/></g><g class="a" transform="translate(-57.796 -150.791)"><path class="b" d="M221.776,154.255a4.516,4.516,0,0,1,.952,3.1,4.845,4.845,0,0,1-.952,3.175,3.08,3.08,0,0,1-2.562,1.155,2.99,2.99,0,0,1-2.562-1.155,4.641,4.641,0,0,1-.952-3.1,5.661,5.661,0,0,1,.439-2.309,3.7,3.7,0,0,1,1.245-1.515,3.261,3.261,0,0,1,1.9-.505A3.133,3.133,0,0,1,221.776,154.255Zm-4.539.505a5.452,5.452,0,0,0,0,5.2,2.525,2.525,0,0,0,3.807,0,4.356,4.356,0,0,0,.659-2.67,4.26,4.26,0,0,0-.659-2.6,2.277,2.277,0,0,0-1.9-.866A2.685,2.685,0,0,0,217.237,154.76Z"/><path class="c" d="M 219.2870788574219 153.0999908447266 C 220.2387084960938 153.1000061035156 221.1172180175781 153.4608306884766 221.7760620117188 154.254638671875 C 222.4349060058594 154.9762878417969 222.7277221679688 156.0587615966797 222.7277221679688 157.3577423095703 C 222.7277221679688 158.6567077636719 222.4349060058594 159.7391815185547 221.7760620117188 160.5329895019531 C 221.1172180175781 161.3268127441406 220.3119506835938 161.6876373291016 219.2138671875 161.6876373291016 C 218.1157836914063 161.6876373291016 217.2373046875 161.3268127441406 216.6516723632813 160.5329895019531 C 215.9928283691406 159.7391662597656 215.6999816894531 158.7288665771484 215.6999816894531 157.4298858642578 C 215.6999816894531 156.5639190673828 215.8464050292969 155.7700958251953 216.1392211914063 155.1206207275391 C 216.4320678710938 154.4711303710938 216.8712768554688 153.9659729003906 217.3837280273438 153.6051483154297 C 217.8961486816406 153.2443237304688 218.5550231933594 153.0999908447266 219.2870788574219 153.0999908447266 Z M 219.1406555175781 160.8216552734375 C 219.9459228515625 160.8216552734375 220.6047668457031 160.5330047607422 221.0440063476563 159.9556884765625 C 221.4832458496094 159.3783569335938 221.7028503417969 158.5123748779297 221.7028503417969 157.2855834960938 C 221.7028503417969 156.1309356689453 221.4832458496094 155.2649536132813 221.0440063476563 154.6876373291016 C 220.6047668457031 154.1102905273438 219.9459228515625 153.8216552734375 219.1406555175781 153.8216552734375 C 218.3353881835938 153.8938140869141 217.7497253417969 154.1824798583984 217.2373046875 154.7597808837891 C 216.7980651855469 155.3371124267578 216.5784606933594 156.2030944824219 216.5784606933594 157.3577423095703 C 216.5784606933594 158.5123748779297 216.798095703125 159.3783569335938 217.2373046875 159.9556884765625 C 217.6765441894531 160.5330047607422 218.3353881835938 160.8216552734375 219.1406555175781 160.8216552734375 Z"/></g><g class="a" transform="translate(-61.118 -150.874)"><path class="b" d="M236.445,161.627h-.878l-.439-4.763c-.073-.794-.073-1.588-.146-2.526l-2.343,6.278h-.878l-2.269-6.278c0,.866-.073,1.732-.146,2.526l-.366,4.763H228.1l.732-8.227H230l2.2,6.278,2.269-6.278h1.171Z"/><path class="c" d="M 236.4454345703125 161.6268005371094 L 235.5669860839844 161.6268005371094 L 235.1277160644531 156.8639221191406 C 235.0545349121094 156.0700988769531 235.0545349121094 155.2762756347656 234.9813232421875 154.338134765625 L 232.6387329101563 160.6164703369141 L 231.76025390625 160.6164703369141 L 229.4908752441406 154.338134765625 C 229.4908752441406 155.2041015625 229.4176940917969 156.0700988769531 229.344482421875 156.8639221191406 L 228.9784545898438 161.6268005371094 L 228.0999755859375 161.6268005371094 L 228.83203125 153.4000091552734 L 230.0033264160156 153.4000091552734 L 232.1995239257813 159.6783599853516 L 234.4689025878906 153.4000091552734 L 235.6401977539063 153.4000091552734 L 236.4454345703125 161.6268005371094 Z"/></g><g class="a" transform="translate(-64.976 -150.874)"><path class="b" d="M250.845,161.627h-.878l-.439-4.763c-.073-.794-.073-1.588-.146-2.526l-2.343,6.278h-.878l-2.269-6.278c0,.866-.073,1.732-.146,2.526l-.366,4.763H242.5l.732-8.227H244.4l2.2,6.278,2.269-6.278h1.171Z"/><path class="c" d="M 250.8453979492188 161.6268005371094 L 249.9669647216797 161.6268005371094 L 249.5277099609375 156.8639221191406 C 249.4544982910156 156.0700988769531 249.4544982910156 155.2762756347656 249.3812866210938 154.338134765625 L 247.0387268066406 160.6164703369141 L 246.1602630615234 160.6164703369141 L 243.8908843994141 154.338134765625 C 243.8908843994141 155.2041015625 243.8176727294922 156.0700988769531 243.7444915771484 156.8639221191406 L 243.3784637451172 161.6268005371094 L 242.4999847412109 161.6268005371094 L 243.2320404052734 153.4000091552734 L 244.4033203125 153.4000091552734 L 246.5995178222656 159.6783599853516 L 248.8688659667969 153.4000091552734 L 250.0401611328125 153.4000091552734 L 250.8453979492188 161.6268005371094 Z"/></g><g class="a" transform="translate(-68.54 -150.874)"><path class="b" d="M259.826,161.627a6.482,6.482,0,0,1-.732,1.588,3.4,3.4,0,0,1-1.025,1.01,4.663,4.663,0,0,1-1.611.577l-.073-.722a4.534,4.534,0,0,0,1.318-.505,2.311,2.311,0,0,0,.732-.722,6.547,6.547,0,0,0,.586-1.227h-.293L255.8,153.4h1.025l2.489,7.577L261.8,153.4h.952Z"/><path class="c" d="M 256.4588012695313 164.8020782470703 L 256.3856201171875 164.0804290771484 C 256.9712524414063 163.9360656738281 257.3372802734375 163.7917633056641 257.7033081054688 163.5752563476563 C 257.99609375 163.3587646484375 258.2889404296875 163.1422576904297 258.4353637695313 162.8536071777344 C 258.6549682617188 162.56494140625 258.8013916015625 162.1319427490234 259.02099609375 161.6268005371094 L 258.7281799316406 161.6268005371094 L 255.7999267578125 153.4000091552734 L 256.8248291015625 153.4000091552734 L 259.3137817382813 160.9773101806641 L 261.8027954101563 153.4000091552734 L 262.7544555664063 153.4000091552734 L 259.8262939453125 161.6268005371094 C 259.6066589355469 162.2763061523438 259.3869934082031 162.7814331054688 259.0942077636719 163.2144165039063 C 258.8013916015625 163.6474304199219 258.5086059570313 163.9360656738281 258.0693054199219 164.2247161865234 C 257.630126953125 164.5133972167969 257.11767578125 164.6577301025391 256.4588012695313 164.8020782470703 Z"/></g><g class="a" transform="translate(-71.755 -150.874)"><path class="b" d="M272.924,161.627v-3.9h-4.173v3.9H267.8V153.4h.952v3.608h4.173V153.4h.952v8.227Z"/><path class="c" d="M 273.8760375976563 161.6268005371094 L 272.9243774414063 161.6268005371094 L 272.9243774414063 157.7299041748047 L 268.7516174316406 157.7299041748047 L 268.7516174316406 161.6268005371094 L 267.7999877929688 161.6268005371094 L 267.7999877929688 153.4000091552734 L 268.7516174316406 153.4000091552734 L 268.7516174316406 157.0082550048828 L 272.9243774414063 157.0082550048828 L 272.9243774414063 153.4000091552734 L 273.8760375976563 153.4000091552734 L 273.8760375976563 161.6268005371094 Z"/></g><g class="a" transform="translate(-75.185 -150.846)"><path class="b" d="M286.676,161.6H285.8v-5.124a20.681,20.681,0,0,1,.073-2.093l-4.173,7.144h-1.1V153.3h.952v4.835c0,.505,0,1.3-.073,2.309l4.173-7.144h1.1v8.3Z"/><path class="c" d="M 286.7492065429688 161.5989685058594 L 286.676025390625 161.5989685058594 L 285.7975463867188 161.5989685058594 L 285.7975463867188 156.4752349853516 C 285.7975463867188 155.8257598876953 285.7975463867188 155.1040954589844 285.8707885742188 154.3824462890625 L 281.6980285644531 161.5267944335938 L 280.5999755859375 161.5267944335938 L 280.5999755859375 153.2999877929688 L 281.5516357421875 153.2999877929688 L 281.5516357421875 158.1350402832031 C 281.5516357421875 158.6401977539063 281.5516357421875 159.4340209960938 281.4783935546875 160.4443054199219 L 285.651123046875 153.2999877929688 L 286.7492065429688 153.2999877929688 L 286.7492065429688 161.5989685058594 Z"/></g><g class="a" transform="translate(-78.642 -150.874)"><path class="b" d="M299.137,153.4l-2.635,3.825,3,4.4h-1.1l-2.709-4.041h-1.245v4.041H293.5V153.4h.952v3.464H295.7l2.343-3.464h1.1Z"/><path class="c" d="M 299.1368408203125 153.3999938964844 L 299.1368408203125 153.4000091552734 L 299.1368408203125 153.3999938964844 Z M 293.5 153.4000091552734 L 294.45166015625 153.4000091552734 L 294.45166015625 156.8639221191406 L 295.6961669921875 156.8639221191406 L 298.0387573242188 153.4000091552734 L 299.1368408203125 153.4000091552734 L 296.5014038085938 157.2247314453125 L 299.5028686523438 161.6268005371094 L 298.4047546386719 161.6268005371094 L 295.6961669921875 157.5855407714844 L 294.45166015625 157.5855407714844 L 294.45166015625 161.6268005371094 L 293.5 161.6268005371094 L 293.5 153.4000091552734 Z"/></g><g class="a" transform="translate(-81.16 -150.791)"><path class="b" d="M309.122,160.605a.981.981,0,0,0,.512.433l-.22.649a1.679,1.679,0,0,1-.878-.433,1.622,1.622,0,0,1-.439-.938,2.874,2.874,0,0,1-2.635,1.371,2.639,2.639,0,0,1-1.9-.649,2.382,2.382,0,0,1-.659-1.8,2.149,2.149,0,0,1,.952-1.948,4.309,4.309,0,0,1,2.562-.722h1.611v-.794a2.011,2.011,0,0,0-.439-1.443,2.08,2.08,0,0,0-1.464-.433,5.923,5.923,0,0,0-2.269.505l-.22-.722a7.588,7.588,0,0,1,2.635-.577c1.83,0,2.709.866,2.709,2.6v3.969A2.476,2.476,0,0,0,309.122,160.605Zm-1.1-1.082v-2.237H306.56a3.205,3.205,0,0,0-1.977.505,1.711,1.711,0,0,0-.659,1.443,1.749,1.749,0,0,0,.439,1.3,1.806,1.806,0,0,0,1.318.433A2.564,2.564,0,0,0,308.024,159.523Z"/><path class="c" d="M 309.415283203125 161.6876373291016 C 309.0492858886719 161.6154632568359 308.7564697265625 161.4711151123047 308.5368347167969 161.2546234130859 C 308.3171997070313 161.0381469726563 308.1707763671875 160.7494659423828 308.0975952148438 160.3164825439453 C 307.5119323730469 161.2546234130859 306.6334533691406 161.6876220703125 305.4621887207031 161.6876220703125 C 304.6568908691406 161.6876220703125 303.9980773925781 161.4710998535156 303.5588073730469 161.0381469726563 C 303.1195678710938 160.6051330566406 302.8999633789063 160.0278167724609 302.8999633789063 159.2340240478516 C 302.8999633789063 158.3680267333984 303.1927795410156 157.7185363769531 303.8516540527344 157.2855682373047 C 304.4373168945313 156.8525695800781 305.3157348632813 156.5639038085938 306.4138488769531 156.5639038085938 L 308.0243835449219 156.5639038085938 L 308.0243835449219 155.7700805664063 C 308.0243835449219 155.1206207275391 307.8779602050781 154.6154479980469 307.5851440429688 154.3267974853516 C 307.2923278808594 154.0381317138672 306.7798767089844 153.893798828125 306.1210021972656 153.893798828125 C 305.4621887207031 153.893798828125 304.7301025390625 154.0381317138672 303.8516540527344 154.3989410400391 L 303.6320190429688 153.6773071289063 C 304.5836791992188 153.3164825439453 305.4621887207031 153.0999755859375 306.2674560546875 153.0999755859375 C 308.0975952148438 153.0999755859375 308.9760437011719 153.9659576416016 308.9760437011719 155.6979217529297 L 308.9760437011719 159.6669921875 C 308.9760437011719 160.0999908447266 309.0492553710938 160.4608306884766 309.1224365234375 160.6051635742188 C 309.2688598632813 160.8216400146484 309.415283203125 160.9659729003906 309.6348876953125 161.0381469726563 L 309.415283203125 161.6876373291016 Z M 306.5602416992188 157.2855682373047 C 305.6817932128906 157.2855682373047 305.0961303710938 157.4298706054688 304.5836791992188 157.7907104492188 C 304.1444396972656 158.1515197753906 303.9248657226563 158.5845336914063 303.9248657226563 159.2340240478516 C 303.9248657226563 159.8113403320313 304.0712890625 160.2443237304688 304.3641052246094 160.5329895019531 C 304.6568908691406 160.8216247558594 305.0961303710938 160.9659729003906 305.6817932128906 160.9659729003906 C 306.7066955566406 160.9659729003906 307.5119323730469 160.4608306884766 308.0243835449219 159.5226898193359 L 308.0243835449219 157.2855682373047 L 306.5602416992188 157.2855682373047 Z"/></g><g class="a" transform="translate(-84.617 -150.846)"><path class="b" d="M321.656,160.805h1.1v3.031h-.732l-.22-2.309h-6V153.3h.952v7.433h4.026V153.3h.952v7.505Z"/><path class="c" d="M 322.7544860839844 163.8360595703125 L 322.0224609375 163.8360595703125 L 321.8028564453125 161.5267944335938 L 315.7999877929688 161.5267944335938 L 315.7999877929688 153.2999877929688 L 316.7516479492188 153.2999877929688 L 316.7516479492188 160.7329864501953 L 320.7779235839844 160.7329864501953 L 320.7779235839844 153.2999877929688 L 321.7295837402344 153.2999877929688 L 321.7295837402344 160.8051452636719 L 321.6564331054688 160.8051452636719 L 321.7295837402344 160.8051452636719 L 322.7544860839844 160.8051452636719 L 322.7544860839844 163.8360595703125 Z"/></g><g class="a" transform="translate(-87.993 -150.846)"><path class="b" d="M334.476,161.6H333.6v-5.124a20.7,20.7,0,0,1,.073-2.093l-4.173,7.144h-1.1V153.3h.952v4.835c0,.505,0,1.3-.073,2.309l4.173-7.144h1.1v8.3Z"/><path class="c" d="M 334.5492248535156 161.5989685058594 L 334.4760437011719 161.5989685058594 L 333.5975646972656 161.5989685058594 L 333.5975646972656 156.4752349853516 C 333.5975646972656 155.8257598876953 333.5975646972656 155.1040954589844 333.6707458496094 154.3824462890625 L 329.498046875 161.5267944335938 L 328.3999328613281 161.5267944335938 L 328.3999328613281 153.2999877929688 L 329.3516235351563 153.2999877929688 L 329.3516235351563 158.1350402832031 C 329.3516235351563 158.6401977539063 329.3516235351563 159.4340209960938 329.2784118652344 160.4443054199219 L 333.4511413574219 153.2999877929688 L 334.5492248535156 153.2999877929688 L 334.5492248535156 161.5989685058594 Z"/></g><g class="a" transform="translate(-91.449 -150.846)"><path class="b" d="M347.376,161.6H346.5v-5.124a20.69,20.69,0,0,1,.073-2.093l-4.173,7.144h-1.1V153.3h.952v4.835c0,.505,0,1.3-.073,2.309l4.173-7.144h1.1v8.3Z"/><path class="c" d="M 347.44921875 161.5989685058594 L 347.3760375976563 161.5989685058594 L 346.4975280761719 161.5989685058594 L 346.4975280761719 156.4752349853516 C 346.4975280761719 155.8257598876953 346.4975280761719 155.1040954589844 346.5707397460938 154.3824462890625 L 342.3980102539063 161.5267944335938 L 341.2999267578125 161.5267944335938 L 341.2999267578125 153.2999877929688 L 342.2515869140625 153.2999877929688 L 342.2515869140625 158.1350402832031 C 342.2515869140625 158.6401977539063 342.2515869140625 159.4340209960938 342.1784057617188 160.4443054199219 L 346.3511352539063 153.2999877929688 L 347.44921875 153.2999877929688 L 347.44921875 161.5989685058594 Z"/></g></g></g></svg>