<svg xmlns="http://www.w3.org/2000/svg" viewBox="0 0 64 64"><defs><style>.a{fill:#e8f3f7;}.b{fill:#42aaff;}</style></defs><g transform="translate(-400 -2896)"><rect class="a" width="64" height="64" transform="translate(400 2896)"/><path class="b" d="M7.272-6.552a4.154,4.154,0,0,1,2.07.9,2.658,2.658,0,0,1,.792,2.124Q10.134,0,5.22,0H1.8V-12.4H4.734a6.909,6.909,0,0,1,3.609.774A2.584,2.584,0,0,1,9.594-9.27a2.53,2.53,0,0,1-.675,1.8A3.035,3.035,0,0,1,7.272-6.552Zm-3.762-4.5v3.906H5.382a2.866,2.866,0,0,0,1.773-.522,1.74,1.74,0,0,0,.693-1.476,1.568,1.568,0,0,0-.729-1.494,4.592,4.592,0,0,0-2.2-.414ZM5.22-1.368a4.8,4.8,0,0,0,2.313-.45,1.786,1.786,0,0,0,.8-1.71A2,2,0,0,0,7.56-5.292a3.451,3.451,0,0,0-2.016-.54H3.51v4.464ZM21.024-12.4,17.586-6.588,21.366,0h-1.98l-3.24-5.814H14.454V0h-1.71V-12.4h1.71v5.184h1.71l3.06-5.184Z" transform="translate(421 2934)"/></g></svg>