<svg xmlns="http://www.w3.org/2000/svg" viewBox="0 0 64 64"><defs><style>.a{fill:#e8f3f7;}.b{fill:#42aaff;}</style></defs><g transform="translate(-560 -2896)"><rect class="a" width="64" height="64" transform="translate(560 2896)"/><path class="b" d="M10.134-12.618a4.818,4.818,0,0,1,2.673.738,4.729,4.729,0,0,1,1.764,2.187,8.869,8.869,0,0,1,.621,3.5,8.765,8.765,0,0,1-.621,3.465,4.785,4.785,0,0,1-1.764,2.2,4.775,4.775,0,0,1-2.673.747A4.48,4.48,0,0,1,6.561-1.341,7.013,7.013,0,0,1,5.094-5.724H3.51V0H1.8V-12.4H3.51v5.274h1.6a6.839,6.839,0,0,1,1.593-4.059A4.456,4.456,0,0,1,10.134-12.618Zm0,11.43q3.24,0,3.24-5,0-5.022-3.24-5.022A2.729,2.729,0,0,0,7.74-9.972a7.025,7.025,0,0,0-.846,3.888,6.353,6.353,0,0,0,.864,3.708A2.778,2.778,0,0,0,10.134-1.188ZM24.678-12.4l-.18,1.458H21.06V0H19.35V-10.944H15.822V-12.4Z" transform="translate(580 2934)"/></g></svg>